HIERARCHY
ROOT SpineBase
{
  OFFSET 0.000000 0.000000 0.000000
  CHANNELS 6 Xposition Yposition Zposition Zrotation Xrotation Yrotation
  JOINT SpineMid
  {
    OFFSET 0.000000 25.472859 0.000000
    CHANNELS 3 Zrotation Xrotation Yrotation
    JOINT SpineShoulder
    {
      OFFSET -0.197849 19.113414 -0.554499
      CHANNELS 3 Zrotation Xrotation Yrotation
      JOINT Neck
      {
        OFFSET -0.067953 6.361812 -0.443234
        CHANNELS 3 Zrotation Xrotation Yrotation
        JOINT Head
        {
          OFFSET 3.350606 12.657564 0.163558
          CHANNELS 3 Zrotation Xrotation Yrotation
          End Site
          {
            OFFSET 0 0 0
          }
        }
      }
      JOINT ShoulderLeft
      {
        OFFSET -13.090921 -2.342817 -7.941963
        CHANNELS 3 Zrotation Xrotation Yrotation
        JOINT ElbowLeft
        {
          OFFSET -0.125553 -19.570168 -9.338243
          CHANNELS 3 Zrotation Xrotation Yrotation
          JOINT WristLeft
          {
            OFFSET 11.380880 -16.011414 -10.472690
            CHANNELS 3 Zrotation Xrotation Yrotation
            JOINT HandLeft
            {
              OFFSET 2.887822 -5.004905 -3.799362
              CHANNELS 3 Zrotation Xrotation Yrotation
              JOINT HandTipLeft
              {
                OFFSET 4.112995 -5.028183 -5.058047
                CHANNELS 3 Zrotation Xrotation Yrotation
                End Site
                {
                  OFFSET 0 0 0
                }
              }
              JOINT ThumbLeft
              {
                OFFSET -2.270587 -2.314328 -0.164167
                CHANNELS 3 Zrotation Xrotation Yrotation
                End Site
                {
                  OFFSET 0 0 0
                }
              }
            }
          }
        }
      }
      JOINT ShoulderRight
      {
        OFFSET 14.729774 -4.963867 2.845889
        CHANNELS 3 Zrotation Xrotation Yrotation
        JOINT ElbowRight
        {
          OFFSET 6.928103 -25.001253 -0.541904
          CHANNELS 3 Zrotation Xrotation Yrotation
          JOINT WristRight
          {
            OFFSET 2.847568 -12.384676 -16.426349
            CHANNELS 3 Zrotation Xrotation Yrotation
            JOINT HandRight
            {
              OFFSET 0.607617 -2.986266 -5.859263
              CHANNELS 3 Zrotation Xrotation Yrotation
              JOINT HandTipRight
              {
                OFFSET 2.944204 -5.490360 -4.117298
                CHANNELS 3 Zrotation Xrotation Yrotation
                End Site
                {
                  OFFSET 0 0 0
                }
              }
              JOINT ThumbRight
              {
                OFFSET -1.570567 -3.942752 -2.773424
                CHANNELS 3 Zrotation Xrotation Yrotation
                End Site
                {
                  OFFSET 0 0 0
                }
              }
            }
          }
        }
      }
    }
  }
  JOINT HipLeft
  {
    OFFSET -6.504781 1.187629 -5.868727
    CHANNELS 3 Zrotation Xrotation Yrotation
    JOINT KneeLeft
    {
      OFFSET 12.851853 -2.517598 -27.820164
      CHANNELS 3 Zrotation Xrotation Yrotation
      JOINT AnkleLeft
      {
        OFFSET -1.191500 -35.238616 2.333601
        CHANNELS 3 Zrotation Xrotation Yrotation
        JOINT FootLeft
        {
          OFFSET 3.567601 -7.572932 -3.581704
          CHANNELS 3 Zrotation Xrotation Yrotation
          End Site
          {
            OFFSET 0 0 0
          }
        }
      }
    }
  }
  JOINT HipRight
  {
    OFFSET 6.131828 0.746454 -0.375053
    CHANNELS 3 Zrotation Xrotation Yrotation
    JOINT KneeRight
    {
      OFFSET 22.440813 -3.910668 -19.023024
      CHANNELS 3 Zrotation Xrotation Yrotation
      JOINT AnkleRight
      {
        OFFSET -5.483856 -31.614017 2.046996
        CHANNELS 3 Zrotation Xrotation Yrotation
        JOINT FootRight
        {
          OFFSET 0.182925 -8.136296 -4.945583
          CHANNELS 3 Zrotation Xrotation Yrotation
          End Site
          {
            OFFSET 0 0 0
          }
        }
      }
    }
  }
}
MOTION
Frames: 9
Frame Time: 0.033333
20.650771 53.517937 374.434000 -0.000000 0.000000 -23.496647 -0.000000 0.000000 23.496647 -0.000000 0.000000 0.000000 -0.000000 0.000000 0.000000 0.000000 0.000000 0.000000 -0.000000 0.000000 0.000000 -0.000000 0.000000 0.000000 -0.000000 0.000000 0.000000 -0.000000 0.000000 0.000000 0.000000 0.000000 0.000000 0.000000 0.000000 0.000000 -0.000000 0.000000 0.000000 -0.000000 0.000000 0.000000 -0.000000 0.000000 0.000000 -0.000000 0.000000 0.000000 0.000000 0.000000 0.000000 0.000000 0.000000 0.000000 -0.000000 0.000000 23.496647 -0.000000 0.000000 0.000000 -0.000000 0.000000 0.000000 0.000000 0.000000 0.000000 -0.000000 0.000000 23.496647 -0.000000 0.000000 0.000000 -0.000000 0.000000 0.000000 0.000000 0.000000 0.000000
20.371978 53.611074 374.925283 -0.302845 -0.651798 -23.406437 0.019006 0.718464 23.404596 -0.000000 0.000000 0.000000 -0.000000 0.000000 0.000000 0.000000 0.000000 0.000000 -0.000000 0.000000 0.000000 -0.000000 0.000000 0.000000 -0.000000 0.000000 0.000000 -1.524868 0.137787 1.664547 0.000000 0.000000 0.000000 0.000000 0.000000 0.000000 -0.000000 0.000000 0.000000 -0.631585 0.366466 0.921228 0.625625 -0.376551 -0.917152 -1.605543 0.743817 1.617571 0.000000 0.000000 0.000000 0.000000 0.000000 0.000000 0.019006 0.718464 23.404596 0.462509 0.845113 -0.001359 0.579276 5.873908 2.542825 0.000000 0.000000 0.000000 0.019006 0.718464 23.404596 0.826890 0.497727 -0.036443 0.530682 5.347440 -0.701054 0.000000 0.000000 0.000000
20.136131 53.693703 375.338560 -0.552184 -1.183308 -23.314571 -0.144521 0.239415 23.284401 0.589733 0.906517 0.021831 -0.000000 0.000000 0.000000 0.000000 0.000000 0.000000 -0.000000 0.000000 0.000000 -0.495233 -0.712124 -0.186670 -0.280797 -0.403561 0.128836 -1.885637 1.329903 3.007663 0.000000 0.000000 0.000000 0.000000 0.000000 0.000000 -0.000000 0.000000 0.000000 -1.189993 0.589567 1.712354 0.944170 -1.681767 -1.532625 -2.934544 2.335471 2.968893 0.000000 0.000000 0.000000 0.000000 0.000000 0.000000 0.038824 1.305211 23.308426 0.844773 1.572546 -0.008835 0.837221 10.985185 4.709144 0.000000 0.000000 0.000000 -0.073674 1.443981 24.527152 1.590477 0.708746 -1.283114 1.222554 10.325873 -1.510229 0.000000 0.000000 0.000000
19.943232 53.765823 375.673832 -0.747569 -1.593563 -23.222097 -0.196482 0.275704 23.178497 0.108278 0.401484 -0.020568 0.709947 0.862051 0.053355 0.000000 0.000000 0.000000 0.709947 0.862051 0.053355 -0.643267 -0.951509 -0.263419 -0.356922 -0.565723 0.141010 -2.406870 1.773907 3.923185 0.000000 0.000000 0.000000 0.000000 0.000000 0.000000 0.526871 0.023286 -0.173769 -1.497305 1.507658 2.627329 1.288427 -2.258082 -2.090626 -4.275286 3.110377 4.230771 0.000000 0.000000 0.000000 0.000000 0.000000 0.000000 0.058810 1.759176 23.210797 1.148837 2.185857 -0.019785 0.873193 15.298536 6.545866 0.000000 0.000000 0.000000 -0.099166 1.938585 24.871172 2.204372 0.960666 -1.750093 2.065417 14.877553 -2.410919 0.000000 0.000000 0.000000
19.793280 53.827433 375.931099 -0.888652 -1.881888 -23.129732 -0.235104 0.256022 23.074896 0.132817 0.455865 -0.025505 0.869637 1.099456 0.064027 0.000000 0.000000 0.000000 0.104008 0.741503 0.444650 0.037523 -0.755153 -0.693847 -0.379141 -0.684710 0.118763 -2.658963 2.078852 4.429532 0.000000 0.000000 0.000000 0.000000 0.000000 0.000000 0.685526 0.051137 -0.220743 -1.909574 1.666260 3.236104 1.565838 -2.636208 -2.519206 -5.523633 3.606221 5.320741 0.000000 0.000000 0.000000 0.000000 0.000000 0.000000 0.078228 2.079617 23.113717 1.376112 2.687874 -0.032114 0.771083 18.862911 8.097956 0.000000 0.000000 0.000000 -0.117726 2.280836 25.103808 2.695205 1.154959 -2.099729 3.050262 18.985295 -3.387801 0.000000 0.000000 0.000000
19.686274 53.878535 376.110360 -0.975176 -2.047833 -23.037929 -0.260574 0.180258 22.974608 0.151408 0.470018 -0.029759 0.990593 1.311567 0.071739 0.000000 0.000000 0.000000 0.118651 0.954828 0.508092 0.130072 -0.838610 -0.795895 -0.344321 -0.753421 0.063753 -2.647484 2.247123 4.521007 0.000000 0.000000 0.000000 0.000000 0.000000 0.000000 0.836212 0.090657 -0.261479 -2.278425 1.657789 3.711303 1.787932 -2.802817 -2.824220 -6.676568 3.812260 6.222428 0.000000 0.000000 0.000000 0.000000 0.000000 0.000000 0.096320 2.266034 23.018595 1.527378 3.080620 -0.044207 0.595609 21.764049 9.404227 0.000000 0.000000 0.000000 -0.130006 2.470414 25.226435 3.062438 1.297702 -2.331669 4.170123 22.661431 -4.428138 0.000000 0.000000 0.000000
19.595039 53.962423 376.283061 -1.003422 -2.153534 -22.894057 -0.284852 0.012810 22.823564 0.183909 0.465955 -0.032939 1.073888 1.566907 0.076939 0.000000 0.000000 0.000000 0.098515 1.180895 0.569096 0.215381 -0.939809 -0.929146 -0.201121 -0.729717 -0.013803 -1.953209 3.155059 4.437984 0.000000 0.000000 0.000000 0.000000 0.000000 0.000000 0.855599 -0.179289 -0.399889 -2.727357 1.783974 4.489110 2.338125 -3.224901 -3.793582 -9.743484 3.989464 8.948041 0.000000 0.000000 0.000000 0.000000 0.000000 0.000000 0.100157 1.270387 22.180634 1.997414 4.605211 0.598070 0.580100 26.854618 11.488921 0.000000 0.000000 0.000000 -0.188744 2.530563 25.262574 3.419547 1.511336 -2.538712 8.029788 28.681169 -7.527209 0.000000 0.000000 0.000000
19.590881 54.005584 376.271784 -0.942733 -1.994471 -22.891508 -0.272236 -0.212354 22.821085 0.178102 0.358217 -0.036056 1.094802 1.728014 0.078301 0.000000 0.000000 0.000000 0.043075 1.371036 0.611692 4.005703 -0.083016 -2.698644 -3.073272 -1.251422 1.420568 -0.528312 5.278452 4.396003 0.000000 0.000000 0.000000 0.000000 0.000000 0.000000 0.995578 -0.263308 -0.470392 -3.146629 1.514664 4.881640 2.405270 -3.280791 -3.794872 -10.782952 3.485583 9.203926 0.000000 0.000000 0.000000 0.000000 0.000000 0.000000 0.090596 0.473198 22.042836 2.179797 5.373643 0.705926 0.459945 28.942839 12.472627 0.000000 0.000000 0.000000 -0.203851 2.307863 25.234486 3.523957 1.579100 -2.515788 9.874137 31.485231 -9.042526 0.000000 0.000000 0.000000
19.624204 54.003275 376.184159 -0.849001 -1.752311 -22.952462 -0.252303 -0.454697 22.884421 0.205670 0.261958 -0.035959 0.145951 1.790728 0.121445 0.000000 0.000000 0.000000 -0.042899 1.548722 0.631657 -0.188133 -0.891538 -0.521942 0.852622 -0.925969 -0.919982 0.387048 2.087481 0.889679 0.000000 0.000000 0.000000 0.000000 0.000000 0.000000 1.084306 -0.156020 -0.470958 -2.213554 1.256559 3.360369 1.263048 -2.017495 -1.672277 -6.649337 4.114792 5.866645 0.000000 0.000000 0.000000 0.000000 0.000000 0.000000 0.088750 -0.208221 21.993005 2.233777 5.729347 0.807058 0.149543 29.168853 12.823251 0.000000 0.000000 0.000000 -0.208951 1.992138 25.188088 3.513042 1.543289 -2.392537 8.517182 33.256888 -8.083590 0.000000 0.000000 0.000000
